<svg version="1.1" id="Layer_1" xmlns="http://www.w3.org/2000/svg" xmlns:xlink="http://www.w3.org/1999/xlink" x="0px" y="0px"
	 width="100%" viewBox="0 0 1024 1024" enable-background="new 0 0 1024 1024" xml:space="preserve">
<path fill="#000000" opacity="1.000000" stroke="none" 
	d="
M504.100830,343.123474 
	C511.075562,334.006531 516.910156,324.341797 527.713440,318.050720 
	C522.759338,316.331177 518.650574,316.630005 514.656189,316.359375 
	C503.486481,315.602509 492.346008,315.929047 481.353210,318.225677 
	C474.098724,319.741302 472.763214,322.095947 472.108185,329.264465 
	C470.348206,348.525513 460.362518,366.535950 439.857910,372.317230 
	C436.731293,373.198761 433.270844,374.119324 431.328430,370.662689 
	C429.377960,367.191742 431.266479,364.353455 434.107025,362.035004 
	C437.026367,359.652222 438.538177,356.438507 439.928497,352.930939 
	C443.214966,344.639648 446.168304,336.201111 450.626007,327.822571 
	C444.705841,328.584991 439.918732,330.944000 435.100525,332.981598 
	C428.208832,335.896027 421.583679,339.437317 414.715637,342.413055 
	C412.322418,343.450012 411.151215,344.896790 410.278381,347.261658 
	C404.386261,363.225861 393.629211,373.387695 376.178406,375.481812 
	C369.610138,376.269989 363.145874,378.314789 356.457062,375.880066 
	C349.976318,373.521149 347.909698,368.552521 352.033478,363.071747 
	C364.167450,346.944855 380.147949,336.021576 400.262024,334.145630 
	C413.096741,332.948547 423.615173,327.536835 435.689514,321.987885 
	C428.605774,318.957489 422.390259,316.110046 416.028931,313.637634 
	C411.075317,311.712341 406.031372,309.954590 400.560120,309.954224 
	C397.535645,309.954010 395.495331,308.420135 395.111725,305.227417 
	C394.751190,302.226715 396.778351,301.163391 399.143951,300.389252 
	C407.567993,297.632477 414.497803,291.789734 423.048798,289.157593 
	C441.507690,283.475677 463.853088,290.762756 474.840027,306.521667 
	C475.790222,307.884583 476.740967,308.856995 478.477356,308.468262 
	C489.013947,306.109436 499.709839,307.062714 510.352356,306.894531 
	C510.966644,306.884827 511.578522,306.722504 513.296082,306.466675 
	C507.387787,302.387665 501.749908,299.593140 496.987610,295.526489 
	C493.933502,292.918518 490.977570,290.223206 488.485840,287.120728 
	C485.332001,283.193909 486.757172,279.437012 491.788422,278.986938 
	C500.557343,278.202545 509.243103,276.402954 518.117249,276.786499 
	C536.106506,277.564026 552.305054,289.743774 557.803772,306.747131 
	C558.370422,308.499359 558.650452,310.403687 561.009094,310.661560 
	C575.776550,312.276001 589.931091,316.621277 605.197937,320.950775 
	C601.849670,316.097260 597.628601,313.815979 593.893250,311.124054 
	C588.309387,307.100067 583.047729,302.865204 579.206177,297.045227 
	C577.710999,294.780090 576.550598,292.392273 576.011597,289.775452 
	C574.713623,283.473419 578.715698,278.323944 585.072876,279.191437 
	C606.544250,282.121277 624.019531,291.282501 633.529480,312.040283 
	C635.256042,315.808929 635.513245,319.742493 635.172668,323.773621 
	C634.555298,331.081207 635.429993,332.008301 642.395325,334.378174 
	C653.872925,338.283325 665.877014,340.800690 676.539062,346.909302 
	C679.278076,348.478577 681.980042,350.154572 684.509521,352.036255 
	C687.073669,353.943756 688.638977,356.368652 686.663269,359.759827 
	C683.958435,359.971954 681.593811,358.873077 679.508911,357.753937 
	C668.249573,351.709900 655.820679,349.024323 643.875366,344.954315 
	C640.914917,343.945648 639.275085,344.731018 638.242493,347.779602 
	C636.440857,353.098877 635.187378,358.662872 631.025513,362.951569 
	C622.236816,372.007965 611.012024,375.043701 599.024475,376.133667 
	C594.217468,376.570740 589.340515,376.514130 584.694885,374.811096 
	C580.441040,373.251740 578.511963,370.005310 580.859192,366.751984 
	C588.034729,356.806519 594.270142,346.105377 603.208923,337.515961 
	C604.989319,335.805176 607.183289,334.567993 611.004578,333.331665 
	C593.606445,326.326111 577.089966,322.085754 559.403320,320.951782 
	C558.415100,324.940979 557.302124,328.563324 556.639282,332.266266 
	C554.267151,345.520325 546.085510,353.374878 533.633057,357.231293 
	C522.736267,360.605896 511.399597,361.251312 500.134033,362.261505 
	C497.280609,362.517365 495.283539,361.110901 494.320007,358.491974 
	C493.289062,355.689850 494.035309,353.098999 496.331512,351.296295 
	C499.244965,349.009003 501.847778,346.496033 504.100830,343.123474 
M610.987854,344.423798 
	C601.796143,349.020477 598.999023,358.882660 591.924438,365.828339 
	C609.632812,371.118011 632.607483,356.282318 630.066345,342.277802 
	C623.817322,341.749908 617.494629,340.450287 610.987854,344.423798 
M463.583496,306.785980 
	C449.048645,295.673157 425.812805,293.930542 416.007324,303.217926 
	C428.938599,313.349731 453.983551,316.738037 466.069580,309.897217 
	C465.948639,308.632050 464.824768,308.070160 463.583496,306.785980 
M548.500000,326.409882 
	C548.398132,324.151154 546.679932,324.385895 545.221436,324.351013 
	C540.644897,324.241638 536.339172,325.333252 532.239685,327.347198 
	C522.169983,332.294250 516.937988,341.725525 510.382080,350.360352 
	C531.860596,350.588593 544.599670,344.579132 548.500000,326.409882 
M542.315308,298.177216 
	C529.555420,284.799988 515.017029,283.339539 502.337006,287.449707 
	C512.172668,298.169495 538.727844,308.225433 547.368530,304.437103 
	C546.488159,302.008453 544.639465,300.341797 542.315308,298.177216 
M588.591797,288.266876 
	C587.364807,288.392639 585.881592,287.641693 585.085632,289.237274 
	C586.829529,295.855774 616.777283,318.793793 626.187134,320.758636 
	C620.802307,304.517914 608.964172,294.105560 588.591797,288.266876 
M387.095428,347.549561 
	C377.656586,352.302948 368.535980,357.478516 361.413513,366.167206 
	C377.686279,369.546997 396.946960,359.789368 401.211304,343.743347 
	C396.360291,343.921173 392.046387,345.451263 387.095428,347.549561 
M454.085449,341.634003 
	C452.508423,346.783905 449.436310,351.424957 448.307312,357.180725 
	C455.929779,353.762604 463.292419,339.333862 462.273834,330.125549 
	C458.212067,332.915070 456.750549,337.276855 454.085449,341.634003 
z"/>
<path fill="#000000" opacity="1.000000" stroke="none" 
	d="
M433.435608,721.701843 
	C426.865570,719.694763 420.684235,717.807983 414.230286,715.838013 
	C421.235626,721.835632 428.432220,727.071777 435.568604,732.400085 
	C440.580109,736.141846 444.330811,741.128540 446.189819,747.205322 
	C448.399353,754.427917 444.278229,760.127258 436.930450,759.100586 
	C416.013062,756.178040 397.051849,744.688965 389.030029,723.938965 
	C387.739258,720.600220 387.735504,717.160583 388.171906,713.605652 
	C388.711670,709.208862 387.885956,705.700989 382.589508,704.226685 
	C374.422791,701.953430 366.470917,698.918640 358.385284,696.340637 
	C351.303925,694.082764 345.104309,690.259766 339.210571,685.878601 
	C338.176422,685.109863 337.401672,683.943298 336.643524,682.864624 
	C335.709045,681.535095 335.538483,679.971436 336.445099,678.624817 
	C337.623871,676.874023 339.202972,677.926514 340.453308,678.557312 
	C349.389465,683.064392 358.707642,686.580750 368.245972,689.562805 
	C371.897980,690.704529 375.526764,691.929688 379.125916,693.228333 
	C381.790009,694.189575 383.665894,693.705933 384.590820,690.828186 
	C384.793457,690.197876 385.225983,689.635925 385.392914,689.000488 
	C390.445312,669.771240 405.515198,664.323425 422.733765,662.047180 
	C428.189301,661.325989 433.742950,661.306213 438.988770,663.533203 
	C443.331238,665.376709 444.687469,668.505981 442.022675,672.274963 
	C435.795441,681.082520 429.249725,689.670227 422.657501,698.211426 
	C420.294037,701.273621 416.854431,703.142212 413.292786,704.755859 
	C419.809875,710.379639 451.744507,718.219055 464.421173,717.486389 
	C464.150696,711.573669 466.419037,706.183533 468.266418,700.728577 
	C472.425781,688.446655 482.430878,683.136169 493.975891,680.159912 
	C503.353851,677.742310 513.042053,677.215454 522.688232,676.641907 
	C525.464783,676.476868 527.678345,677.439392 528.731628,680.090088 
	C529.730835,682.604736 529.461426,685.320068 527.387024,687.028503 
	C520.464600,692.729370 515.853577,700.274353 510.497467,707.250427 
	C506.331635,712.676331 501.263428,717.256592 494.072479,721.353333 
	C497.586578,721.814819 499.781128,722.233032 501.993225,722.372253 
	C515.139893,723.199463 528.290588,723.768188 541.322571,721.128235 
	C549.179260,719.536743 550.398193,717.248779 551.348816,709.365784 
	C553.454102,691.908020 561.674927,673.258545 582.228699,667.392822 
	C583.506836,667.028076 584.802368,666.723816 586.091064,666.396484 
	C588.640564,665.749023 590.762512,666.410461 592.140381,668.684692 
	C593.548706,671.009216 593.032288,673.897034 591.254639,675.101257 
	C584.540405,679.650269 583.435547,687.238342 580.301453,693.729858 
	C577.426880,699.683838 575.853516,706.200989 571.460083,712.462036 
	C584.037842,708.846008 594.639832,703.286560 605.634949,698.688660 
	C609.917908,696.897644 612.156250,694.286255 614.030884,689.926208 
	C620.464722,674.961975 631.576355,665.503662 648.369385,663.912476 
	C654.797852,663.303406 661.239441,661.750732 667.627075,664.333618 
	C673.304565,666.629333 674.907715,671.393494 671.317139,676.244141 
	C658.270203,693.870239 641.091736,705.047363 619.007874,706.107056 
	C609.913086,706.543579 602.985168,710.877930 595.196777,713.817688 
	C592.249512,714.930176 589.432861,716.388977 585.813599,718.025940 
	C598.945496,721.324280 609.874695,729.374756 623.324402,729.868713 
	C625.763123,729.958252 627.344604,731.260193 627.776428,733.787964 
	C628.216370,736.363403 627.140930,737.979248 624.709167,738.726746 
	C617.958191,740.802002 612.004578,744.574280 605.874878,747.879822 
	C587.092834,758.008057 556.404907,748.294617 548.557068,732.660950 
	C547.827026,731.206604 546.842285,730.115723 545.077393,730.410645 
	C538.988586,731.427795 532.843994,731.794861 526.690979,731.924438 
	C520.761047,732.049377 514.826355,731.951477 508.528961,731.951477 
	C514.897888,736.254395 521.834106,739.541687 527.358398,744.860291 
	C529.872742,747.281128 532.756104,749.366943 534.718750,752.278625 
	C537.260376,756.049255 535.983521,759.640503 531.578247,759.967346 
	C521.004578,760.751831 510.482056,763.604431 499.800781,761.504944 
	C482.887177,758.180420 471.621826,748.008728 465.459259,732.154236 
	C464.296539,729.163025 463.118683,727.494446 459.715698,727.124146 
	C450.937408,726.168762 442.297272,724.359680 433.435608,721.701843 
M408.975189,695.664795 
	C420.765320,691.783203 423.497589,679.739990 432.169861,671.953064 
	C415.505035,668.686768 391.977386,677.463684 393.000885,696.273743 
	C398.060364,696.181152 403.145935,697.779968 408.975189,695.664795 
M590.318604,741.979309 
	C596.663696,741.726929 602.400696,739.687134 608.688477,736.340393 
	C591.263428,728.251831 574.903137,720.511414 556.076355,729.116516 
	C563.878479,737.568787 575.132080,741.846130 590.318604,741.979309 
M480.131287,699.668945 
	C477.964203,702.077209 476.959137,705.121216 475.765533,708.017883 
	C473.249115,714.124878 474.264832,715.333557 480.962250,714.588318 
	C481.619293,714.515198 482.264648,714.336792 482.915283,714.206482 
	C494.683990,711.849487 507.296051,700.654053 512.578186,687.638733 
	C507.463226,688.341797 502.505890,688.817383 497.634064,689.743103 
	C490.988647,691.005798 484.947876,693.589233 480.131287,699.668945 
M519.410950,749.754883 
	C506.227600,740.464783 492.644714,732.278503 475.096130,733.151184 
	C484.394958,748.783936 502.923615,756.785400 519.042908,752.687744 
	C520.737122,752.257080 521.600708,751.678589 519.410950,749.754883 
M421.113342,745.433838 
	C426.337646,747.705078 431.441406,750.458313 437.492340,750.097351 
	C437.191803,743.153992 406.973816,718.997620 396.901215,717.245117 
	C400.731689,730.063965 409.280487,738.676208 421.113342,745.433838 
M623.482666,695.797302 
	C639.395752,693.461365 651.367859,684.668579 662.796570,672.874573 
	C657.042358,671.609985 652.806946,672.948364 648.600342,673.490356 
	C637.229675,674.955444 629.304688,681.663635 623.612305,691.244019 
	C622.883789,692.470093 621.304932,693.908630 623.482666,695.797302 
M574.825256,683.927063 
	C574.860168,683.077576 576.015381,682.229370 574.694702,681.217773 
	C564.995056,687.825989 562.511658,698.013916 560.717346,708.565369 
	C568.456055,702.304688 570.741272,692.981018 574.825256,683.927063 
z"/>
<path fill="#000000" opacity="1.000000" stroke="none" 
	d="
M631.571960,529.751831 
	C627.518188,531.632874 623.661377,534.737183 619.597351,531.906494 
	C615.293274,528.908630 616.905334,524.167542 617.586792,519.910828 
	C617.873352,518.120850 618.039612,516.311646 618.996277,515.313293 
	C614.192871,519.472656 609.294434,523.529114 604.629272,527.838135 
	C602.540283,529.767639 600.582642,531.816040 598.036011,533.118591 
	C593.120911,535.632568 589.820740,533.691223 589.724792,528.207886 
	C589.690247,526.233948 589.956177,524.254761 590.154602,521.209106 
	C582.010376,524.731750 576.492188,521.449402 572.703247,513.950073 
	C567.902405,517.198608 565.444214,521.530396 563.164673,525.883728 
	C559.456970,532.964417 556.036499,540.195129 552.447205,547.338562 
	C551.627808,548.969360 550.724304,550.581726 549.660522,552.059326 
	C548.532959,553.625366 546.977112,554.615112 544.912781,553.976990 
	C543.062622,553.404968 542.435608,551.841003 542.178162,550.135010 
	C541.593994,546.263306 542.707458,542.528198 543.299927,538.770874 
	C544.334229,532.211792 546.399963,525.893250 548.618225,518.788757 
	C540.055481,524.623779 532.823914,530.969910 524.524231,535.774048 
	C519.457031,538.707092 514.270081,541.283813 508.442261,542.387207 
	C494.625854,545.002747 489.980927,542.117493 486.281586,528.085205 
	C481.977051,531.907837 477.864471,535.624329 473.671051,539.247314 
	C472.295502,540.435730 470.819733,541.603333 469.202789,542.401550 
	C459.884155,547.001587 452.407166,542.410217 453.062469,532.053223 
	C453.619110,523.255493 455.370117,514.565247 458.789124,506.334717 
	C459.294556,505.118011 460.009521,503.953186 460.808411,502.901794 
	C461.999390,501.334290 463.521362,500.328094 465.538239,501.490570 
	C467.453400,502.594421 466.981018,504.215515 466.355194,505.863556 
	C463.747833,512.729736 461.729156,519.761108 460.493683,527.008789 
	C460.269775,528.322327 460.060455,529.639221 459.794464,530.944397 
	C459.374756,533.003418 459.391602,535.084106 461.067719,536.501099 
	C462.950623,538.092957 464.989105,536.874146 466.641052,535.911926 
	C473.657684,531.824768 478.940521,525.771912 484.203308,519.766235 
	C490.129333,513.003540 495.876099,506.083069 501.659424,499.196472 
	C503.537231,496.960419 505.779968,495.359863 508.577179,494.499817 
	C515.717407,492.304443 521.953430,497.318604 521.107117,504.697296 
	C520.742554,507.875610 519.665161,510.845734 517.624878,513.401611 
	C516.648254,514.625061 515.550537,515.882446 513.885315,515.120850 
	C512.028198,514.271423 512.751160,512.595947 513.224854,511.200348 
	C513.918640,509.156555 514.919312,507.210144 514.838501,504.959381 
	C514.698364,501.052948 512.766052,499.830597 509.347443,501.521271 
	C502.070007,505.120361 492.508698,522.250305 493.345917,530.189270 
	C493.785034,534.353027 496.560181,536.748169 501.312256,536.689026 
	C508.537994,536.599182 514.881287,533.665771 520.993835,530.150208 
	C531.010132,524.389526 539.366943,516.373535 548.722778,509.717316 
	C552.293274,507.177094 555.499939,504.535889 556.806396,500.048737 
	C557.413879,497.962402 558.916748,495.757141 561.557007,496.850983 
	C564.290588,497.983459 563.299927,500.486755 562.532288,502.482513 
	C558.658386,512.554260 553.461731,522.146240 551.479858,533.971802 
	C553.866333,529.463867 555.740601,525.753601 557.770081,522.130249 
	C560.715271,516.872131 564.044067,511.871521 569.019104,508.278290 
	C573.340942,505.156891 575.719238,505.684570 578.424316,510.106567 
	C582.526794,516.812927 584.506409,517.323120 590.961731,512.894958 
	C594.953674,510.156555 598.350769,506.712555 601.715088,503.224060 
	C605.909302,498.875000 610.644836,496.049500 616.770630,499.760986 
	C618.817200,501.000977 620.150024,500.141724 621.368530,498.424866 
	C623.682007,495.165222 626.083252,491.967957 628.439392,488.738495 
	C629.841980,486.815979 631.383362,484.471710 634.033447,486.181427 
	C636.453247,487.742523 635.524475,490.277283 634.537231,492.488037 
	C631.551086,499.175049 628.207642,505.705078 625.928650,512.699646 
	C624.638489,516.659119 623.798096,520.642883 623.868042,524.917236 
	C626.973511,525.135254 629.114441,523.644470 630.980225,522.158630 
	C637.227478,517.183594 643.339600,512.033081 649.378662,506.805542 
	C651.334900,505.112152 651.619385,502.388062 652.421570,500.046173 
	C658.689819,481.746399 665.456055,463.675903 675.398926,446.956116 
	C677.804871,442.910278 680.695435,439.287933 683.730469,435.749664 
	C685.670715,433.487701 688.047302,431.689026 691.131348,433.120087 
	C694.254944,434.569580 693.622925,437.753967 693.138489,440.219635 
	C691.164673,450.265594 686.688232,459.426147 682.537842,468.690186 
	C682.015564,469.855927 680.821472,470.833282 681.695740,473.042572 
	C687.538635,472.378510 693.599487,471.768036 699.635193,470.967682 
	C702.299744,470.614410 703.318176,468.361420 704.250183,466.167419 
	C707.053101,459.569611 710.037781,453.061066 714.091980,447.114075 
	C715.299194,445.343262 716.626709,442.965820 719.166809,444.208130 
	C721.793274,445.492706 720.609558,447.937317 719.774719,449.922180 
	C717.838013,454.526611 715.777405,459.078827 713.825317,463.676971 
	C713.140625,465.289978 711.739380,466.794250 712.973877,469.271606 
	C724.025635,468.299438 735.244141,467.292480 746.467224,466.339417 
	C749.280945,466.100494 752.108154,465.958923 754.931396,465.915833 
	C756.848816,465.886597 758.810974,466.294098 758.986694,468.667236 
	C759.169006,471.130463 757.088806,471.690674 755.286499,471.876770 
	C746.846252,472.748230 738.393372,473.503448 729.938904,474.228760 
	C724.467041,474.698212 718.984131,475.037964 713.507080,475.448517 
	C709.945618,475.715515 707.304871,476.979858 705.868164,480.709381 
	C698.557190,499.687225 691.923828,518.869690 687.963989,538.862427 
	C687.094788,543.250793 686.963257,547.785828 686.505798,552.254761 
	C686.348633,553.790527 686.327148,555.435669 687.828186,556.280518 
	C689.663757,557.313660 691.150818,556.044067 692.143494,554.765625 
	C696.021606,549.770935 699.856750,544.734192 703.492493,539.561707 
	C710.291260,529.889404 716.770996,519.980835 724.718567,511.176422 
	C726.843262,508.822632 727.817871,506.295990 727.740234,503.061829 
	C727.542236,494.814178 732.519714,489.522491 738.734436,485.162262 
	C740.522278,483.907898 742.754089,483.567749 744.973999,483.764893 
	C747.043640,483.948700 749.191895,484.377594 749.432861,486.873108 
	C749.667847,489.307129 747.544922,489.655975 745.751953,490.117889 
	C736.830200,492.416382 733.374756,496.709076 734.143738,505.844910 
	C734.776489,513.363098 736.188416,520.815674 737.228760,528.112854 
	C739.954895,528.390503 741.173096,527.095886 742.502075,526.191528 
	C750.763489,520.569458 758.988708,514.894226 767.220337,509.228424 
	C769.239319,507.838806 771.447815,505.434387 773.680725,508.198517 
	C776.081604,511.170441 772.942871,512.640625 771.050903,514.002197 
	C761.723877,520.714172 752.396057,527.431641 742.895447,533.892578 
	C739.075317,536.490479 736.562561,539.415649 736.029541,544.227722 
	C735.380554,550.087402 733.048889,555.468018 729.787109,560.401062 
	C726.399231,565.524841 721.863464,567.493835 718.164185,565.484070 
	C713.890930,563.162598 713.004395,558.147339 715.901428,552.264832 
	C718.213745,547.569641 721.307312,543.332520 725.375916,540.135559 
	C730.563232,536.059448 731.384521,530.879395 730.510315,524.967285 
	C730.129822,522.393982 729.614319,519.840637 728.972168,516.217957 
	C725.355469,520.925720 722.239685,524.743286 719.383606,528.746033 
	C712.225098,538.778564 705.098877,548.828003 697.187561,558.296997 
	C694.088501,562.006165 690.609863,565.973083 685.506958,564.067444 
	C680.542847,562.213684 679.977905,556.845215 680.030579,552.149536 
	C680.150757,541.424011 682.947205,531.081116 685.132446,520.661255 
	C685.572815,518.561279 686.044556,516.467957 686.613831,513.857788 
	C682.797791,513.970337 679.956543,515.654907 677.212158,517.242065 
	C670.124268,521.341309 662.845642,525.008972 655.044617,527.513489 
	C651.422119,528.676453 651.053589,530.593689 652.309814,533.933777 
	C658.938965,551.558777 659.469177,569.674683 656.267761,588.047607 
	C655.543213,592.205566 654.218323,596.127502 651.790588,599.593933 
	C648.371643,604.475891 644.376343,604.371704 641.128967,599.457092 
	C637.359314,593.752014 636.916321,587.207764 636.778137,580.747559 
	C636.364807,561.425049 640.711426,542.753845 645.065308,524.103027 
	C645.436340,522.513550 645.763306,520.913879 646.181641,518.993713 
	C641.185303,522.683594 636.536072,526.117126 631.571960,529.751831 
M698.096375,480.839417 
	C698.496643,479.524475 698.892883,477.556213 697.131958,477.644440 
	C690.052917,477.999023 682.902222,478.300629 676.220947,481.066101 
	C675.464722,481.379089 675.089905,482.654510 674.576294,483.506531 
	C669.761963,491.492554 664.898743,499.449890 660.171631,507.487274 
	C657.793640,511.530487 654.826233,515.307556 653.342957,519.827942 
	C654.889282,520.769165 655.857117,520.434937 656.739685,520.006104 
	C667.368347,514.842346 677.986389,509.656403 688.601135,504.463989 
	C690.467834,503.550842 690.819458,501.627411 691.424805,499.930878 
	C693.606079,493.817719 695.724670,487.682159 698.096375,480.839417 
M651.225464,554.338928 
	C650.309387,550.609680 650.002869,546.686096 647.626770,543.307495 
	C644.641724,560.242004 640.694336,577.077820 646.545227,594.168945 
	C652.856262,581.714539 652.070435,568.447510 651.225464,554.338928 
M675.476990,469.971985 
	C678.994202,461.032806 684.340332,452.795502 685.881714,443.083466 
	C674.635864,458.676422 667.380981,476.114227 661.299377,495.381042 
	C667.302979,487.029175 670.700623,478.542847 675.476990,469.971985 
M611.415100,505.145203 
	C601.928345,508.304474 599.774780,516.763428 597.085632,524.889648 
	C603.477356,520.548096 608.072021,514.491699 613.016907,508.799103 
	C614.123535,507.525055 614.108032,505.997711 611.415100,505.145203 
M722.650818,553.136658 
	C721.777893,554.957153 719.948914,556.544189 721.053162,558.990906 
	C725.879517,556.556091 727.819702,553.060059 727.606140,546.914124 
	C725.933594,548.988159 724.490967,550.777161 722.650818,553.136658 
z"/>
<path fill="#000000" opacity="1.000000" stroke="none" 
	d="
M457.001221,456.903015 
	C444.784454,475.587494 439.887238,496.525940 435.284821,517.525024 
	C432.609131,529.733093 430.994141,542.095825 431.220428,554.668762 
	C431.325775,560.522827 431.744202,566.268860 433.139893,571.969666 
	C433.738495,574.414856 435.130524,577.939026 431.366211,578.637695 
	C427.971375,579.267944 427.379700,575.609619 426.823700,573.149780 
	C424.033356,560.805542 424.484253,548.405823 425.996216,535.900391 
	C427.595490,522.672913 430.434479,509.712708 433.743774,495.506409 
	C427.890503,503.109253 422.900238,509.760773 417.717804,516.259033 
	C414.607117,520.159424 411.290405,523.908203 407.886230,527.557129 
	C405.763275,529.832825 403.540558,532.473511 399.849854,531.487549 
	C396.275360,530.532593 397.046448,527.073120 396.256592,524.093201 
	C391.837585,526.137024 388.635315,529.726074 384.289825,531.468567 
	C375.879547,534.841003 372.175385,532.319214 372.851288,523.258240 
	C373.072205,520.297424 373.723907,517.368835 374.331543,513.435303 
	C369.759125,518.292358 365.764709,522.540527 361.763214,526.782104 
	C360.849060,527.751160 359.968414,528.762817 358.972382,529.641602 
	C356.089355,532.185242 353.046661,535.324341 348.921448,533.862915 
	C344.408356,532.264038 345.991943,527.779175 345.778992,523.829468 
	C342.220642,524.543335 340.206024,527.333374 337.727936,529.241089 
	C328.955566,535.994507 319.174011,539.500366 308.051636,539.138611 
	C304.321930,539.017212 300.837555,537.954468 297.413208,536.616211 
	C292.296143,534.616394 287.198792,532.565979 282.081238,530.567444 
	C275.545380,528.015015 275.143463,528.212158 273.589844,535.283569 
	C271.448883,545.028503 269.494049,554.815796 267.227966,564.531006 
	C266.511566,567.602173 266.112701,572.187927 261.724518,571.503113 
	C257.622131,570.862976 258.652374,566.539185 258.830597,563.518677 
	C259.264252,556.166809 261.144775,549.141907 263.498474,542.143494 
	C274.063385,510.730011 281.510071,478.450531 289.690704,446.376892 
	C290.800446,442.025909 291.767975,437.632446 293.062225,433.337280 
	C293.744629,431.072449 294.369019,427.692810 297.659271,428.626343 
	C300.808472,429.519867 299.900238,432.584564 299.272552,435.034607 
	C295.555664,449.543121 291.817322,464.046143 288.109680,478.557037 
	C287.372375,481.442596 286.737122,484.354248 285.719696,488.677917 
	C289.914429,480.923248 294.240143,474.847260 298.916809,469.049286 
	C306.087982,460.158722 314.044067,452.106201 325.113068,448.116760 
	C330.066132,446.331635 335.470001,443.695740 340.219818,447.940369 
	C345.140808,452.338043 343.953583,458.441193 342.507690,463.871490 
	C337.742828,481.766846 326.661224,495.509399 312.953583,507.420868 
	C305.278137,514.090576 296.401672,519.023132 287.771240,524.518250 
	C299.401123,533.950500 314.087708,535.391785 327.277344,527.840027 
	C337.691254,521.877563 347.343842,514.727295 355.442078,505.721283 
	C357.793060,503.106781 360.157501,500.531464 363.376404,498.970093 
	C366.286560,497.558533 369.223724,497.576691 371.947266,499.375946 
	C374.495392,501.059296 376.154083,500.309326 377.703156,497.933807 
	C379.794281,494.726898 382.014709,491.596710 384.323151,488.541992 
	C385.728271,486.682556 387.437531,484.483276 390.085236,486.129700 
	C392.643097,487.720245 391.650208,490.122467 390.633728,492.349243 
	C386.426056,501.566956 381.328613,510.449799 379.874420,520.714600 
	C379.691498,522.005920 379.065704,523.286499 380.052856,524.873291 
	C383.833435,524.927917 386.796326,522.655945 389.503021,520.425964 
	C396.673187,514.518494 404.294678,509.004425 408.662292,500.350525 
	C409.534149,498.623016 411.093445,497.176270 412.539673,495.817047 
	C417.119293,491.513184 419.482086,491.288300 424.840912,494.421082 
	C426.621307,494.341675 427.215179,492.796814 428.045868,491.620789 
	C435.564056,480.977051 442.340790,469.950439 446.352509,457.406830 
	C448.440002,450.879761 451.708893,444.846313 455.086365,438.909515 
	C456.606842,436.236847 458.831970,433.446564 462.231628,435.268341 
	C465.352356,436.940674 464.310028,440.203186 463.196411,442.876221 
	C461.278107,447.480682 459.192383,452.015411 457.001221,456.903015 
M284.276642,505.729858 
	C282.321075,510.179230 279.706421,514.405151 278.888794,519.818115 
	C280.446350,519.555237 281.277618,519.517944 282.036865,519.264709 
	C283.454926,518.791748 284.877197,518.287659 286.217773,517.632874 
	C303.102875,509.385834 316.426300,497.003906 326.933716,481.631287 
	C331.519409,474.922302 335.622589,467.775635 336.972198,459.506378 
	C337.948273,453.525452 335.409576,451.278870 329.626740,453.206818 
	C320.690613,456.185974 313.590363,461.913361 307.414612,468.826355 
	C297.779938,479.611359 290.700897,492.030945 284.276642,505.729858 
M356.581482,522.806335 
	C361.202881,517.378418 366.895752,512.786377 370.353302,506.131134 
	C363.341858,504.216797 354.373260,514.512512 353.575470,524.917358 
	C354.559570,524.252380 355.326569,523.734070 356.581482,522.806335 
M417.291595,506.798767 
	C418.961243,503.967468 422.015167,501.899048 422.427826,498.111023 
	C415.151154,499.172150 407.629120,509.580872 407.237183,518.971985 
	C410.555603,514.969360 413.708405,511.166534 417.291595,506.798767 
z"/>
<path fill="#000000" opacity="1.000000" stroke="none" 
	d="
M474.129272,479.195740 
	C470.016083,480.158356 470.209351,477.363831 471.123291,475.511932 
	C473.882355,469.921417 472.810303,464.879425 469.853912,459.883942 
	C468.832886,458.158722 469.013153,456.577576 469.739044,454.692383 
	C475.878174,438.749542 482.990723,423.205475 488.790253,407.112274 
	C491.854706,398.608704 497.509766,391.430084 504.207550,385.266022 
	C508.784637,381.053619 513.006165,381.882324 514.082764,387.872986 
	C515.974731,398.401337 518.581482,409.435760 509.601471,418.413544 
	C507.431152,420.583313 509.946808,423.012787 508.300446,425.240356 
	C505.843201,428.565063 503.980072,432.328888 501.650970,436.266327 
	C506.585571,437.989685 504.137360,439.906708 501.610840,441.700165 
	C499.855988,442.945801 497.744476,443.732086 496.469818,445.580078 
	C495.721863,446.664429 494.402893,447.998962 494.591400,448.980835 
	C495.820831,455.384521 491.095245,460.231506 490.423492,466.089752 
	C490.218109,467.880768 488.900696,468.879211 487.337463,468.791962 
	C479.969635,468.380646 476.665283,472.953613 474.129272,479.195740 
M502.629974,411.977173 
	C499.167053,420.789612 495.704132,429.602081 491.877655,439.339661 
	C498.440948,436.623474 501.487671,432.318573 504.165863,426.907623 
	C502.490540,427.059265 501.118469,428.275116 500.092255,426.428589 
	C501.859528,420.177887 509.099854,417.835052 511.404755,411.403656 
	C508.919189,411.155121 507.861664,409.778870 508.113220,407.417480 
	C508.429047,404.452728 510.560974,403.837921 513.020264,403.956970 
	C513.129272,401.918121 513.267212,400.274353 512.050781,398.820953 
	C508.524872,398.674255 506.496613,400.471588 505.464966,403.691193 
	C504.653564,406.223328 503.778412,408.735016 502.629974,411.977173 
M490.462769,422.592407 
	C490.996368,423.561035 490.910004,424.885773 492.088165,425.508484 
	C492.365082,425.278229 492.719604,425.126648 492.831329,424.869507 
	C495.946381,417.702301 498.850677,410.435944 502.202637,403.382141 
	C504.148041,399.288239 502.681671,396.656281 499.875946,393.914154 
	C490.454498,406.010498 488.200134,412.707397 490.462769,422.592407 
M482.181091,450.042328 
	C483.326965,447.462616 484.590881,444.927551 485.588013,442.291565 
	C486.760773,439.191315 487.827789,436.037537 488.692749,432.839905 
	C489.149292,431.152130 488.754639,429.479248 486.723907,428.819214 
	C485.577515,428.446655 484.057404,428.087158 483.632477,429.386536 
	C482.740845,432.113098 479.657227,434.114288 480.966248,437.602478 
	C481.641479,439.401886 480.744598,440.846924 479.272278,441.909729 
	C476.822693,443.677948 475.827820,446.282257 474.903961,449.281555 
	C477.119843,450.612793 478.840240,453.579010 482.181091,450.042328 
M488.911835,456.280945 
	C492.703552,452.299561 490.607819,445.997040 494.873322,442.202423 
	C491.229858,443.754425 485.988312,451.774597 485.808228,455.338593 
	C485.682678,457.822693 487.198303,456.863251 488.911835,456.280945 
z"/>
<path fill="#000000" opacity="1.000000" stroke="none" 
	d="
M592.709839,620.826172 
	C595.027771,616.966309 598.502075,616.746155 601.996033,616.886108 
	C602.293762,616.533203 602.570435,616.316162 602.701599,616.031982 
	C603.581970,614.123779 602.665833,610.613098 606.165710,610.983521 
	C609.705322,611.358215 608.850647,614.623291 608.945374,616.964600 
	C609.072937,620.117676 608.986755,623.281067 608.939331,626.439209 
	C608.835693,633.335022 608.008179,633.982117 599.422180,634.013794 
	C595.166931,634.029480 591.717957,630.529114 591.554565,625.982361 
	C591.494385,624.308289 591.646240,622.655029 592.709839,620.826172 
M602.797546,624.793640 
	C602.171814,622.605530 600.689026,621.855042 598.638977,622.641052 
	C597.134033,623.218079 596.250305,624.507080 596.598145,626.184387 
	C596.887268,627.578003 597.880859,628.491455 599.354492,628.656616 
	C601.655334,628.914551 602.697815,627.695129 602.797546,624.793640 
z"/>
<path fill="#000000" opacity="1.000000" stroke="none" 
	d="
M381.087158,616.228821 
	C376.396088,618.181824 374.655670,622.515381 376.965607,626.245728 
	C379.347443,630.092163 382.402405,629.291443 385.430878,626.937073 
	C387.028076,625.695374 388.639984,625.238647 390.371521,626.631836 
	C389.570068,631.692505 385.815735,634.494934 380.523224,634.027100 
	C374.375214,633.483643 370.660919,629.083496 370.683624,622.370300 
	C370.706421,615.619934 374.511963,611.277222 380.693512,610.947632 
	C386.162201,610.655945 389.669556,613.383972 390.381653,618.515564 
	C386.492310,621.329102 384.706573,615.923950 381.087158,616.228821 
z"/>
<path fill="#000000" opacity="1.000000" stroke="none" 
	d="
M620.977905,627.167847 
	C620.866882,628.576660 620.831360,629.575012 620.671570,630.552917 
	C620.401123,632.207825 619.576782,633.284424 617.700134,633.214111 
	C615.755188,633.141113 615.095825,631.856445 615.069641,630.242371 
	C614.983459,624.936646 614.971680,619.628845 615.007629,614.322388 
	C615.019653,612.552551 615.530151,610.964417 617.728210,610.866821 
	C619.847290,610.772705 620.623840,612.146545 620.877197,613.966187 
	C621.011780,614.933167 621.048157,615.913879 621.127686,616.874329 
	C629.581238,617.079163 633.879517,623.402466 631.076111,631.247620 
	C630.620178,632.523804 629.854797,633.169006 628.546997,633.175476 
	C627.211182,633.182068 626.275269,632.498474 626.083374,631.197327 
	C625.866943,629.729431 625.919556,628.223938 625.799744,626.739197 
	C625.658264,624.986694 626.072510,622.560425 623.476257,622.576172 
	C621.007019,622.591125 621.209473,624.968323 620.977905,627.167847 
z"/>
<path fill="#000000" opacity="1.000000" stroke="none" 
	d="
M497.727966,624.912842 
	C497.727509,621.283264 497.697052,618.134583 497.732422,614.986694 
	C497.753296,613.133911 497.755798,610.946960 500.344940,611.082886 
	C502.701141,611.206665 502.210327,613.375671 502.349670,614.955078 
	C502.420532,615.758240 502.462738,616.563965 502.518677,617.379822 
	C510.118774,616.469116 513.928772,618.927734 514.470032,624.910950 
	C514.887573,629.527039 511.559082,633.723389 507.256775,634.004761 
	C499.173248,634.533447 497.740692,633.239258 497.727966,624.912842 
M506.380280,622.309387 
	C504.047852,622.375854 502.557312,623.517395 502.727051,625.897583 
	C502.838104,627.454895 504.034363,628.532898 505.691010,628.710632 
	C507.332092,628.886658 508.632965,628.141907 509.241333,626.642029 
	C510.106506,624.509033 508.926117,623.252258 506.380280,622.309387 
z"/>
<path fill="#000000" opacity="1.000000" stroke="none" 
	d="
M413.170349,629.797974 
	C413.128815,626.628967 414.249908,624.028137 414.328278,621.096313 
	C414.404297,618.252930 417.874878,617.041016 420.879974,616.981262 
	C424.180786,616.915466 426.694672,618.332764 427.721039,621.606812 
	C428.678497,624.661194 428.258209,627.837280 428.086487,630.964966 
	C428.053925,631.557617 427.714935,632.289917 427.272095,632.677795 
	C424.644928,634.978516 415.647705,633.316345 413.170349,629.797974 
z"/>
<path fill="#000000" opacity="1.000000" stroke="none" 
	d="
M641.553467,633.671448 
	C637.275391,631.911377 636.524048,629.190552 638.477661,625.560547 
	C638.759216,625.037415 639.591431,624.775818 639.102661,623.917542 
	C636.380798,619.137817 640.449707,618.224731 643.307251,617.250427 
	C647.084412,615.962463 651.269470,618.203674 651.955017,621.834473 
	C652.500793,624.724670 652.236450,627.776733 652.236877,630.756897 
	C652.237061,632.032288 651.512817,633.379700 650.223022,633.084290 
	C647.312378,632.417603 644.754456,634.629456 641.553467,633.671448 
z"/>
<path fill="#000000" opacity="1.000000" stroke="none" 
	d="
M585.192627,625.302124 
	C585.196350,632.216431 580.583313,635.599365 574.288391,633.635986 
	C573.241821,633.309631 572.013977,632.646912 571.475525,631.768433 
	C569.132080,627.944824 571.081116,623.888672 571.825256,620.213867 
	C572.379456,617.476929 575.945435,616.585999 578.972656,617.047424 
	C583.377258,617.718689 584.861633,620.864868 585.192627,625.302124 
z"/>
<path fill="#000000" opacity="1.000000" stroke="none" 
	d="
M536.603394,620.580872 
	C534.096375,626.217163 531.749878,631.517090 529.343323,636.789612 
	C528.486023,638.667847 527.277771,640.658813 524.891418,639.661133 
	C522.322021,638.587036 523.909729,636.521912 524.601440,635.015198 
	C525.548157,632.953064 524.927734,631.204468 524.209290,629.305664 
	C522.823547,625.643433 520.530762,622.275391 520.230164,617.864075 
	C526.781433,615.808716 525.327881,623.124268 528.631531,624.664124 
	C530.371765,623.254517 530.752930,621.030334 531.736023,619.167419 
	C532.442261,617.829102 533.485779,617.175537 534.955383,617.388672 
	C536.591736,617.625854 537.209167,618.617676 536.603394,620.580872 
z"/>
<path fill="#000000" opacity="1.000000" stroke="none" 
	d="
M473.789490,633.882202 
	C473.232910,633.948425 473.062622,633.974915 472.901825,633.946838 
	C469.728424,633.393677 465.492889,632.520203 466.405060,628.812927 
	C467.306641,625.148621 470.851562,629.232849 473.224670,628.645813 
	C473.442841,626.812256 471.807526,627.331848 471.004028,626.985474 
	C468.351562,625.841919 465.197693,624.813843 466.405884,621.144226 
	C467.623810,617.445007 470.945526,616.445801 474.534149,617.198486 
	C477.080902,617.732666 479.093506,619.155029 478.903076,622.180237 
	C476.955261,624.232727 475.156555,622.584106 472.574524,621.979126 
	C475.409363,624.693054 480.750580,624.121277 479.955658,629.194214 
	C479.457458,632.373535 476.891113,633.253296 473.789490,633.882202 
z"/>
<path fill="#000000" opacity="1.000000" stroke="none" 
	d="
M456.324036,615.823608 
	C459.239319,617.994995 462.457733,619.581116 457.334259,622.705872 
	C455.267181,623.966553 455.503662,626.670288 457.225922,628.318970 
	C458.692352,629.722778 461.131927,630.966248 458.697876,632.770447 
	C456.687531,634.260498 453.799591,633.698364 452.146332,631.281067 
	C451.439911,630.248230 451.068665,628.850403 450.950409,627.580627 
	C450.737000,625.289856 450.529907,623.232910 449.124115,621.114563 
	C447.187836,618.196777 450.425873,616.265930 451.817505,614.367554 
	C453.187195,612.499207 455.045532,613.693909 456.324036,615.823608 
z"/>
<path fill="#000000" opacity="1.000000" stroke="none" 
	d="
M436.094238,632.414062 
	C435.057373,628.260864 435.586853,624.393494 434.143829,620.428589 
	C433.064148,617.462158 435.259186,613.410278 438.682922,611.365601 
	C439.995758,610.581604 442.858398,611.168579 442.516846,611.763184 
	C440.495941,615.282043 445.622040,619.171997 441.760529,622.275757 
	C439.320618,624.236877 440.569550,626.907043 440.363495,629.261963 
	C440.133331,631.892578 439.917450,634.156433 436.094238,632.414062 
z"/>
<path fill="#000000" opacity="1.000000" stroke="none" 
	d="
M555.930298,617.555908 
	C558.682312,617.958313 561.105652,618.030823 563.481445,617.280151 
	C565.135071,619.314270 565.432983,621.327332 563.050415,622.343628 
	C559.789917,623.734375 559.255188,626.133484 559.319458,629.172607 
	C559.357056,630.953369 559.566895,633.137634 556.815002,633.151733 
	C554.166321,633.165283 554.006592,631.057739 554.139160,629.248535 
	C554.422913,625.374634 552.976318,621.259521 555.930298,617.555908 
z"/>
<path fill="#000000" opacity="1.000000" stroke="none" 
	d="
M407.868408,619.299194 
	C407.660950,620.413513 407.568726,621.661133 407.090668,621.832520 
	C403.164398,623.240234 401.924133,626.038269 402.275452,629.969055 
	C402.412079,631.497070 402.034851,633.079041 399.969116,633.078796 
	C397.864655,633.078491 397.729218,631.457703 397.684784,629.934021 
	C397.617157,627.615540 397.514496,625.284424 397.681274,622.977051 
	C397.815277,621.123474 397.068146,617.497437 398.896820,617.852783 
	C401.870392,618.430542 405.365387,615.261414 407.868408,619.299194 
z"/>
<path fill="#000000" opacity="1.000000" stroke="none" 
	d="
M467.826599,494.984253 
	C464.220581,494.564270 462.652649,492.712738 463.526886,489.534454 
	C464.204254,487.071930 466.316864,486.413055 468.683960,486.879364 
	C470.482849,487.233765 471.661987,488.448486 471.800751,490.269775 
	C471.993073,492.793152 470.484589,494.207855 467.826599,494.984253 
z"/>
</svg>